<?xml version="1.0" standalone="no"?>
<!DOCTYPE svg PUBLIC "-//W3C//DTD SVG 20010904//EN"
 "http://www.w3.org/TR/2001/REC-SVG-20010904/DTD/svg10.dtd">
<svg version="1.0" xmlns="http://www.w3.org/2000/svg"
 width="512.000000pt" height="512.000000pt" viewBox="0 0 512.000000 512.000000"
 preserveAspectRatio="xMidYMid meet">

<g transform="translate(0.000000,512.000000) scale(0.100000,-0.100000)"
fill="#000000" stroke="none">
<path d="M2010 5027 c0 -4 39 -51 86 -105 161 -182 262 -341 267 -419 l2 -38
-150 -7 c-173 -7 -270 -31 -422 -103 -372 -176 -606 -485 -700 -925 -28 -134
-26 -516 4 -665 103 -505 370 -913 801 -1222 195 -140 468 -252 614 -253 48 0
73 -15 41 -24 -10 -2 -65 -13 -123 -23 -146 -25 -517 -25 -640 0 -372 76 -640
216 -890 467 -275 276 -448 623 -516 1035 -22 136 -22 434 0 570 92 557 381
1000 864 1323 50 35 92 65 92 67 0 14 -214 -110 -325 -189 -302 -213 -539
-499 -706 -850 -27 -58 -49 -108 -49 -111 0 -4 -7 -21 -15 -38 -65 -139 -154
-496 -175 -706 -13 -133 -13 -400 1 -532 88 -868 642 -1662 1424 -2045 202
-98 430 -173 645 -212 104 -19 629 -29 705 -13 28 5 92 17 143 26 293 51 646
195 967 395 125 78 257 172 250 178 -1 2 -58 -32 -126 -74 -481 -302 -1018
-402 -1564 -293 -161 32 -391 109 -552 186 -34 16 -46 39 -15 30 250 -79 455
-110 727 -110 195 0 304 11 490 49 1035 211 1852 1114 1936 2140 43 529 -82
998 -397 1484 -45 69 -73 85 -41 23 48 -93 126 -382 158 -585 26 -169 29 -445
5 -593 -72 -458 -301 -797 -716 -1061 -52 -34 -103 -64 -112 -67 -38 -14 -15
11 63 68 253 185 467 537 554 910 66 286 64 640 -6 935 -65 273 -197 561 -357
780 -67 91 -195 241 -253 295 -48 46 -38 29 42 -70 262 -325 345 -787 214
-1198 -93 -292 -259 -507 -536 -690 -332 -219 -668 -359 -955 -398 -114 -15
-295 -6 -395 20 -277 72 -503 292 -592 576 -36 115 -42 163 -42 320 1 139 4
170 24 235 82 265 235 410 469 444 50 7 58 -12 15 -35 -44 -23 -132 -138 -179
-235 -55 -113 -124 -378 -94 -359 6 4 15 18 20 31 36 94 184 265 288 332 64
41 208 97 216 83 3 -4 -22 -31 -54 -60 -33 -28 -73 -72 -90 -96 -37 -54 -129
-232 -123 -238 2 -3 21 3 41 13 82 40 162 54 297 54 113 -1 139 -4 202 -26 98
-35 157 -71 230 -141 114 -109 160 -258 117 -383 -8 -25 -13 -48 -11 -51 3 -2
29 11 58 30 90 56 234 112 342 132 24 5 47 19 67 42 38 43 132 184 127 190 -2
2 -28 -13 -58 -33 -92 -62 -156 -87 -217 -82 -70 6 -78 16 -52 63 11 20 19 39
17 42 -3 2 -21 -6 -42 -18 -34 -20 -41 -21 -74 -9 -105 37 -264 237 -323 405
-12 35 -20 67 -16 70 3 3 30 -18 60 -48 63 -63 202 -136 316 -166 86 -22 105
-40 97 -94 -6 -45 -13 -45 125 9 104 41 114 36 108 -48 -4 -60 0 -69 23 -42
18 22 105 77 190 120 39 19 69 37 68 38 -2 2 -76 40 -164 86 -88 46 -185 99
-215 118 -55 34 -170 143 -170 161 0 5 20 21 45 35 43 25 65 51 65 76 0 6 -46
59 -102 117 -108 110 -232 211 -306 246 -32 16 -51 35 -75 77 -47 82 -184 285
-204 301 -9 8 -14 10 -11 4 11 -19 45 -100 67 -160 13 -33 27 -70 32 -83 11
-28 12 -52 1 -52 -9 0 -239 275 -346 413 -37 48 -70 86 -72 84 -2 -2 18 -51
45 -108 26 -57 58 -126 71 -154 12 -27 31 -67 41 -87 19 -38 13 -50 -13 -25
-7 7 -119 105 -248 217 -129 112 -237 206 -240 209 -32 34 -110 104 -110 98z
m1075 -1028 c4 -6 39 -26 79 -45 61 -29 75 -41 96 -80 23 -45 24 -47 5 -60
-10 -8 -37 -14 -60 -14 -62 0 -89 30 -134 151 -12 30 -21 55 -21 57 0 7 30 0
35 -9z"/>
<path d="M1378 4199 c-16 -11 -101 -52 -190 -90 -168 -72 -211 -97 -149 -85
39 7 71 -14 71 -47 0 -30 -40 -84 -75 -101 -149 -70 -192 -95 -242 -141 -58
-53 -69 -82 -18 -49 32 21 116 24 139 5 9 -8 16 -21 16 -30 0 -23 -54 -77
-109 -108 -172 -98 -253 -164 -297 -240 -28 -50 -10 -49 36 0 48 53 114 87
168 87 41 0 72 -23 72 -54 0 -29 -37 -91 -88 -147 -143 -160 -212 -276 -220
-375 -2 -30 -1 -54 4 -54 5 0 19 24 32 54 23 52 74 116 94 116 23 0 68 -43 76
-74 6 -20 6 -74 0 -137 -12 -130 -5 -344 12 -384 l13 -30 8 46 c11 73 54 139
90 139 37 0 106 -113 208 -342 12 -27 24 -48 27 -48 3 0 3 18 -1 40 -5 31 -4
40 7 40 8 0 64 -66 125 -147 106 -142 275 -333 294 -333 5 0 -20 35 -56 78
-152 179 -304 447 -374 657 -79 238 -113 511 -91 730 39 397 177 737 395 973
67 72 75 90 23 51z"/>
</g>
</svg>
